<svg viewBox="0 0 400 420" fill="none" xmlns="http://www.w3.org/2000/svg">
<rect width="400" height="420" rx="30" fill="#176EF9"/>
<path d="M173.75 356.373C173.75 355.307 173.586 354.35 173.258 353.502C172.957 352.627 172.383 351.834 171.535 351.123C170.688 350.385 169.498 349.66 167.967 348.949C166.436 348.238 164.453 347.5 162.02 346.734C159.312 345.859 156.742 344.875 154.309 343.781C151.902 342.688 149.77 341.416 147.91 339.967C146.078 338.49 144.629 336.781 143.562 334.84C142.523 332.898 142.004 330.643 142.004 328.072C142.004 325.584 142.551 323.328 143.645 321.305C144.738 319.254 146.27 317.504 148.238 316.055C150.207 314.578 152.531 313.443 155.211 312.65C157.918 311.857 160.885 311.461 164.111 311.461C168.514 311.461 172.355 312.254 175.637 313.84C178.918 315.426 181.461 317.6 183.266 320.361C185.098 323.123 186.014 326.281 186.014 329.836H173.791C173.791 328.086 173.422 326.555 172.684 325.242C171.973 323.902 170.879 322.85 169.402 322.084C167.953 321.318 166.121 320.936 163.906 320.936C161.773 320.936 159.996 321.264 158.574 321.92C157.152 322.549 156.086 323.41 155.375 324.504C154.664 325.57 154.309 326.773 154.309 328.113C154.309 329.125 154.555 330.041 155.047 330.861C155.566 331.682 156.332 332.447 157.344 333.158C158.355 333.869 159.6 334.539 161.076 335.168C162.553 335.797 164.262 336.412 166.203 337.014C169.457 337.998 172.314 339.105 174.775 340.336C177.264 341.566 179.342 342.947 181.01 344.479C182.678 346.01 183.936 347.746 184.783 349.688C185.631 351.629 186.055 353.83 186.055 356.291C186.055 358.889 185.549 361.213 184.537 363.264C183.525 365.314 182.062 367.051 180.148 368.473C178.234 369.895 175.951 370.975 173.299 371.713C170.646 372.451 167.68 372.82 164.398 372.82C161.445 372.82 158.533 372.438 155.662 371.672C152.791 370.879 150.18 369.689 147.828 368.104C145.504 366.518 143.645 364.494 142.25 362.033C140.855 359.572 140.158 356.66 140.158 353.297H152.504C152.504 355.156 152.791 356.729 153.365 358.014C153.939 359.299 154.746 360.338 155.785 361.131C156.852 361.924 158.109 362.498 159.559 362.854C161.035 363.209 162.648 363.387 164.398 363.387C166.531 363.387 168.281 363.086 169.648 362.484C171.043 361.883 172.068 361.049 172.725 359.982C173.408 358.916 173.75 357.713 173.75 356.373ZM200.041 312.281H210.459L225.799 356.127L241.139 312.281H251.557L229.982 372H221.615L200.041 312.281ZM194.422 312.281H204.799L206.686 355.02V372H194.422V312.281ZM246.799 312.281H257.217V372H244.912V355.02L246.799 312.281Z" fill="white"/>
<path d="M162.6 166.44C173.315 166.44 183.591 162.184 191.167 154.607C198.744 147.031 203 136.755 203 126.04C203 115.325 198.744 105.049 191.167 97.4728C183.591 89.8964 173.315 85.64 162.6 85.64C151.885 85.64 141.61 89.8964 134.033 97.4728C126.457 105.049 122.2 115.325 122.2 126.04C122.2 136.755 126.457 147.031 134.033 154.607C141.61 162.184 151.885 166.44 162.6 166.44Z" fill="url(#paint0_radial_147_47)"/>
<path d="M162.6 166.44C173.315 166.44 183.591 162.184 191.167 154.607C198.744 147.031 203 136.755 203 126.04C203 115.325 198.744 105.049 191.167 97.4728C183.591 89.8964 173.315 85.64 162.6 85.64C151.885 85.64 141.61 89.8964 134.033 97.4728C126.457 105.049 122.2 115.325 122.2 126.04C122.2 136.755 126.457 147.031 134.033 154.607C141.61 162.184 151.885 166.44 162.6 166.44Z" fill="url(#paint1_radial_147_47)"/>
<g filter="url(#filter0_i_147_47)">
<path d="M312.9 85.6C277.33 50.93 220.42 51.53 185.75 87.1C176.815 96.2378 169.929 107.174 165.55 119.18C165.408 119.557 165.183 119.898 164.892 120.176C164.6 120.454 164.249 120.663 163.866 120.787C163.482 120.911 163.076 120.947 162.677 120.892C162.278 120.837 161.896 120.693 161.56 120.47C158.44 118.392 155.132 116.611 151.68 115.15C141.822 110.627 130.985 108.655 120.165 109.415C109.346 110.175 98.8911 113.643 89.7622 119.5C80.6334 125.357 73.1234 133.415 67.9227 142.933C62.7221 152.451 59.9977 163.124 60 173.97C60.0029 188.641 64.9846 202.878 74.13 214.35C80.2006 222.331 88.0356 228.8 97.0219 233.25C106.008 237.7 115.902 240.01 125.93 240H253.08C266.475 240.011 279.678 236.815 291.585 230.679C303.491 224.543 313.756 215.645 321.52 204.73C348.77 169.06 345.87 117.76 312.9 85.59" fill="#D5D4DA"/>
<path d="M312.9 85.6C277.33 50.93 220.42 51.53 185.75 87.1C176.815 96.2378 169.929 107.174 165.55 119.18C165.408 119.557 165.183 119.898 164.892 120.176C164.6 120.454 164.249 120.663 163.866 120.787C163.482 120.911 163.076 120.947 162.677 120.892C162.278 120.837 161.896 120.693 161.56 120.47C158.44 118.392 155.132 116.611 151.68 115.15C141.822 110.627 130.985 108.655 120.165 109.415C109.346 110.175 98.8911 113.643 89.7622 119.5C80.6334 125.357 73.1234 133.415 67.9227 142.933C62.7221 152.451 59.9977 163.124 60 173.97C60.0029 188.641 64.9846 202.878 74.13 214.35C80.2006 222.331 88.0356 228.8 97.0219 233.25C106.008 237.7 115.902 240.01 125.93 240H253.08C266.475 240.011 279.678 236.815 291.585 230.679C303.491 224.543 313.756 215.645 321.52 204.73C348.77 169.06 345.87 117.76 312.9 85.59" fill="url(#paint2_linear_147_47)"/>
</g>
<path d="M312.9 85.6C277.33 50.93 220.42 51.53 185.75 87.1C176.815 96.2378 169.929 107.174 165.55 119.18C165.408 119.557 165.183 119.898 164.892 120.176C164.6 120.454 164.249 120.663 163.866 120.787C163.482 120.911 163.076 120.947 162.677 120.892C162.278 120.837 161.896 120.693 161.56 120.47C158.44 118.392 155.132 116.611 151.68 115.15C141.822 110.627 130.985 108.655 120.165 109.415C109.346 110.175 98.8911 113.643 89.7622 119.5C80.6334 125.357 73.1234 133.415 67.9227 142.933C62.7221 152.451 59.9977 163.124 60 173.97C60.0029 188.641 64.9846 202.878 74.13 214.35C80.2006 222.331 88.0356 228.8 97.0219 233.25C106.008 237.7 115.902 240.01 125.93 240H253.08C266.475 240.011 279.678 236.815 291.585 230.679C303.491 224.543 313.756 215.645 321.52 204.73C348.77 169.06 345.87 117.76 312.9 85.59" fill="url(#paint3_radial_147_47)"/>
<path d="M312.9 85.6C277.33 50.93 220.42 51.53 185.75 87.1C176.815 96.2378 169.929 107.174 165.55 119.18C165.408 119.557 165.183 119.898 164.892 120.176C164.6 120.454 164.249 120.663 163.866 120.787C163.482 120.911 163.076 120.947 162.677 120.892C162.278 120.837 161.896 120.693 161.56 120.47C158.44 118.392 155.132 116.611 151.68 115.15C141.822 110.627 130.985 108.655 120.165 109.415C109.346 110.175 98.8911 113.643 89.7622 119.5C80.6334 125.357 73.1234 133.415 67.9227 142.933C62.7221 152.451 59.9977 163.124 60 173.97C60.0029 188.641 64.9846 202.878 74.13 214.35C80.2006 222.331 88.0356 228.8 97.0219 233.25C106.008 237.7 115.902 240.01 125.93 240H253.08C266.475 240.011 279.678 236.815 291.585 230.679C303.491 224.543 313.756 215.645 321.52 204.73C348.77 169.06 345.87 117.76 312.9 85.59" fill="url(#paint4_radial_147_47)"/>
<path d="M312.9 85.6C277.33 50.93 220.42 51.53 185.75 87.1C176.815 96.2378 169.929 107.174 165.55 119.18C165.408 119.557 165.183 119.898 164.892 120.176C164.6 120.454 164.249 120.663 163.866 120.787C163.482 120.911 163.076 120.947 162.677 120.892C162.278 120.837 161.896 120.693 161.56 120.47C158.44 118.392 155.132 116.611 151.68 115.15C141.822 110.627 130.985 108.655 120.165 109.415C109.346 110.175 98.8911 113.643 89.7622 119.5C80.6334 125.357 73.1234 133.415 67.9227 142.933C62.7221 152.451 59.9977 163.124 60 173.97C60.0029 188.641 64.9846 202.878 74.13 214.35C80.2006 222.331 88.0356 228.8 97.0219 233.25C106.008 237.7 115.902 240.01 125.93 240H253.08C266.475 240.011 279.678 236.815 291.585 230.679C303.491 224.543 313.756 215.645 321.52 204.73C348.77 169.06 345.87 117.76 312.9 85.59" fill="url(#paint5_radial_147_47)"/>
<path d="M312.9 85.6C277.33 50.93 220.42 51.53 185.75 87.1C176.815 96.2378 169.929 107.174 165.55 119.18C165.408 119.557 165.183 119.898 164.892 120.176C164.6 120.454 164.249 120.663 163.866 120.787C163.482 120.911 163.076 120.947 162.677 120.892C162.278 120.837 161.896 120.693 161.56 120.47C158.44 118.392 155.132 116.611 151.68 115.15C141.822 110.627 130.985 108.655 120.165 109.415C109.346 110.175 98.8911 113.643 89.7622 119.5C80.6334 125.357 73.1234 133.415 67.9227 142.933C62.7221 152.451 59.9977 163.124 60 173.97C60.0029 188.641 64.9846 202.878 74.13 214.35C80.2006 222.331 88.0356 228.8 97.0219 233.25C106.008 237.7 115.902 240.01 125.93 240H253.08C266.475 240.011 279.678 236.815 291.585 230.679C303.491 224.543 313.756 215.645 321.52 204.73C348.77 169.06 345.87 117.76 312.9 85.59" fill="url(#paint6_radial_147_47)"/>
<defs>
<filter id="filter0_i_147_47" x="60" y="59.5041" width="279.999" height="180.496" filterUnits="userSpaceOnUse" color-interpolation-filters="sRGB">
<feFlood flood-opacity="0" result="BackgroundImageFix"/>
<feBlend mode="normal" in="SourceGraphic" in2="BackgroundImageFix" result="shape"/>
<feColorMatrix in="SourceAlpha" type="matrix" values="0 0 0 0 0 0 0 0 0 0 0 0 0 0 0 0 0 0 127 0" result="hardAlpha"/>
<feOffset dy="-0.5"/>
<feGaussianBlur stdDeviation="0.5"/>
<feComposite in2="hardAlpha" operator="arithmetic" k2="-1" k3="1"/>
<feColorMatrix type="matrix" values="0 0 0 0 0.815686 0 0 0 0 0.784314 0 0 0 0 0.956863 0 0 0 1 0"/>
<feBlend mode="normal" in2="shape" result="effect1_innerShadow_147_47"/>
</filter>
<radialGradient id="paint0_radial_147_47" cx="0" cy="0" r="1" gradientUnits="userSpaceOnUse" gradientTransform="translate(177.167 111.055) rotate(-172.463) scale(55.4446)">
<stop offset="0.309" stop-color="#E8E8E9"/>
<stop offset="1" stop-color="#D2D2D2"/>
</radialGradient>
<radialGradient id="paint1_radial_147_47" cx="0" cy="0" r="1" gradientUnits="userSpaceOnUse" gradientTransform="translate(166.92 122.62) rotate(-141.242) scale(30.099 27.5777)">
<stop stop-color="#CDCDCE"/>
<stop offset="1" stop-color="#CDCDCE" stop-opacity="0"/>
</radialGradient>
<linearGradient id="paint2_linear_147_47" x1="228.6" y1="230.32" x2="228.6" y2="155.19" gradientUnits="userSpaceOnUse">
<stop stop-color="#DED7FA"/>
<stop offset="1" stop-color="#DED7FA" stop-opacity="0"/>
</linearGradient>
<radialGradient id="paint3_radial_147_47" cx="0" cy="0" r="1" gradientUnits="userSpaceOnUse" gradientTransform="translate(303.733 120.521) rotate(136.5) scale(111.541 119.65)">
<stop offset="0.179" stop-color="#FCFBFE"/>
<stop offset="1" stop-color="#FCFBFE" stop-opacity="0"/>
</radialGradient>
<radialGradient id="paint4_radial_147_47" cx="0" cy="0" r="1" gradientUnits="userSpaceOnUse" gradientTransform="translate(126.58 163.279) rotate(144.444) scale(68.4295 71.7037)">
<stop stop-color="#FCFBFE"/>
<stop offset="1" stop-color="#FCFBFE" stop-opacity="0"/>
</radialGradient>
<radialGradient id="paint5_radial_147_47" cx="0" cy="0" r="1" gradientUnits="userSpaceOnUse" gradientTransform="translate(292.13 144.66) rotate(166.654) scale(238.577 187.887)">
<stop offset="0.815" stop-color="#CECCD7" stop-opacity="0"/>
<stop offset="1" stop-color="#CECCD7"/>
</radialGradient>
<radialGradient id="paint6_radial_147_47" cx="0" cy="0" r="1" gradientUnits="userSpaceOnUse" gradientTransform="translate(96.44 250.19) rotate(-46.79) scale(64.6347 89.1976)">
<stop stop-color="#D0C9EE"/>
<stop offset="1" stop-color="#D0C9EE" stop-opacity="0"/>
</radialGradient>
</defs>
</svg>
